{
    "asset" : {
        "generator" : "Khronos glTF Blender I/O v3.2.43",
        "version" : "2.0"
    },
    "scene" : 0,
    "scenes" : [
        {
            "name" : "Scene",
            "nodes" : [
                0,
                1,
                2
            ]
        }
    ],
    "nodes" : [
        {
            "mesh" : 0,
            "name" : "L55008742",
            "rotation" : [
                0.7071068286895752,
                0,
                0,
                0.7071067094802856
            ]
        },
        {
            "mesh" : 1,
            "name" : "amerique",
            "rotation" : [
                0.7071068286895752,
                0,
                0,
                0.7071067094802856
            ]
        },
        {
            "mesh" : 2,
            "name" : "oceanIndien",
            "rotation" : [
                0.7071068286895752,
                0,
                0,
                0.7071067094802856
            ]
        }
    ],
    "materials" : [
        {
            "doubleSided" : true,
            "name" : "L55008742_2",
            "pbrMetallicRoughness" : {
                "baseColorTexture" : {
                    "index" : 0
                },
                "metallicFactor" : 0
            }
        },
        {
            "doubleSided" : true,
            "name" : "L55008742_5",
            "pbrMetallicRoughness" : {
                "baseColorTexture" : {
                    "index" : 1
                },
                "metallicFactor" : 0
            }
        },
        {
            "doubleSided" : true,
            "name" : "L55008742_1",
            "pbrMetallicRoughness" : {
                "baseColorTexture" : {
                    "index" : 2
                },
                "metallicFactor" : 0
            }
        },
        {
            "doubleSided" : true,
            "name" : "L55008742_4",
            "pbrMetallicRoughness" : {
                "baseColorTexture" : {
                    "index" : 3
                },
                "metallicFactor" : 0
            }
        },
        {
            "doubleSided" : true,
            "name" : "L55008742_3",
            "pbrMetallicRoughness" : {
                "baseColorTexture" : {
                    "index" : 4
                },
                "metallicFactor" : 0
            }
        },
        {
            "doubleSided" : true,
            "name" : "L55008742_6",
            "pbrMetallicRoughness" : {
                "baseColorTexture" : {
                    "index" : 5
                },
                "metallicFactor" : 0
            }
        }
    ],
    "meshes" : [
        {
            "name" : "L55008742",
            "primitives" : [
                {
                    "attributes" : {
                        "POSITION" : 0,
                        "NORMAL" : 1,
                        "TEXCOORD_0" : 2
                    },
                    "indices" : 3,
                    "material" : 0
                },
                {
                    "attributes" : {
                        "POSITION" : 4,
                        "NORMAL" : 5,
                        "TEXCOORD_0" : 6
                    },
                    "indices" : 7,
                    "material" : 1
                },
                {
                    "attributes" : {
                        "POSITION" : 8,
                        "NORMAL" : 9,
                        "TEXCOORD_0" : 10
                    },
                    "indices" : 11,
                    "material" : 2
                },
                {
                    "attributes" : {
                        "POSITION" : 12,
                        "NORMAL" : 13,
                        "TEXCOORD_0" : 14
                    },
                    "indices" : 15,
                    "material" : 3
                },
                {
                    "attributes" : {
                        "POSITION" : 16,
                        "NORMAL" : 17,
                        "TEXCOORD_0" : 18
                    },
                    "indices" : 19,
                    "material" : 4
                },
                {
                    "attributes" : {
                        "POSITION" : 20,
                        "NORMAL" : 21,
                        "TEXCOORD_0" : 22
                    },
                    "indices" : 23,
                    "material" : 5
                }
            ]
        },
        {
            "name" : "L55008742.001",
            "primitives" : [
                {
                    "attributes" : {
                        "POSITION" : 24,
                        "NORMAL" : 25,
                        "TEXCOORD_0" : 26
                    },
                    "indices" : 27,
                    "material" : 1
                },
                {
                    "attributes" : {
                        "POSITION" : 28,
                        "NORMAL" : 29,
                        "TEXCOORD_0" : 30
                    },
                    "indices" : 31,
                    "material" : 3
                }
            ]
        },
        {
            "name" : "L55008742.002",
            "primitives" : [
                {
                    "attributes" : {
                        "POSITION" : 32,
                        "NORMAL" : 33,
                        "TEXCOORD_0" : 34
                    },
                    "indices" : 35,
                    "material" : 0
                },
                {
                    "attributes" : {
                        "POSITION" : 36,
                        "NORMAL" : 37,
                        "TEXCOORD_0" : 38
                    },
                    "indices" : 39,
                    "material" : 4
                },
                {
                    "attributes" : {
                        "POSITION" : 40,
                        "NORMAL" : 41,
                        "TEXCOORD_0" : 42
                    },
                    "indices" : 43,
                    "material" : 5
                }
            ]
        }
    ],
    "textures" : [
        {
            "sampler" : 0,
            "source" : 0
        },
        {
            "sampler" : 0,
            "source" : 1
        },
        {
            "sampler" : 0,
            "source" : 2
        },
        {
            "sampler" : 0,
            "source" : 3
        },
        {
            "sampler" : 0,
            "source" : 4
        },
        {
            "sampler" : 0,
            "source" : 5
        }
    ],
    "images" : [
        {
            "mimeType" : "image/jpeg",
            "name" : "Image_0",
            "uri" : "Image_0.jpg"
        },
        {
            "mimeType" : "image/jpeg",
            "name" : "Image_1",
            "uri" : "Image_1.jpg"
        },
        {
            "mimeType" : "image/jpeg",
            "name" : "Image_2",
            "uri" : "Image_2.jpg"
        },
        {
            "mimeType" : "image/jpeg",
            "name" : "Image_3",
            "uri" : "Image_3.jpg"
        },
        {
            "mimeType" : "image/jpeg",
            "name" : "Image_4",
            "uri" : "Image_4.jpg"
        },
        {
            "mimeType" : "image/jpeg",
            "name" : "Image_5",
            "uri" : "Image_5.jpg"
        }
    ],
    "accessors" : [
        {
            "bufferView" : 0,
            "componentType" : 5126,
            "count" : 8683,
            "max" : [
                0.992048978805542,
                0.7156410217285156,
                0.709526002407074
            ],
            "min" : [
                0.5720880031585693,
                -0.7122340202331543,
                -0.7246459722518921
            ],
            "type" : "VEC3"
        },
        {
            "bufferView" : 1,
            "componentType" : 5126,
            "count" : 8683,
            "type" : "VEC3"
        },
        {
            "bufferView" : 2,
            "componentType" : 5126,
            "count" : 8683,
            "type" : "VEC2"
        },
        {
            "bufferView" : 3,
            "componentType" : 5123,
            "count" : 50952,
            "type" : "SCALAR"
        },
        {
            "bufferView" : 4,
            "componentType" : 5126,
            "count" : 8100,
            "max" : [
                0.7243949770927429,
                0.7226380109786987,
                -0.5783050060272217
            ],
            "min" : [
                -0.717208981513977,
                -0.7191100120544434,
                -1.0040010213851929
            ],
            "type" : "VEC3"
        },
        {
            "bufferView" : 5,
            "componentType" : 5126,
            "count" : 8100,
            "type" : "VEC3"
        },
        {
            "bufferView" : 6,
            "componentType" : 5126,
            "count" : 8100,
            "type" : "VEC2"
        },
        {
            "bufferView" : 7,
            "componentType" : 5123,
            "count" : 47496,
            "type" : "SCALAR"
        },
        {
            "bufferView" : 8,
            "componentType" : 5126,
            "count" : 9415,
            "max" : [
                0.710889995098114,
                0.9857519865036011,
                0.7139149904251099
            ],
            "min" : [
                -0.7136099934577942,
                0.5726550221443176,
                -0.7209939956665039
            ],
            "type" : "VEC3"
        },
        {
            "bufferView" : 9,
            "componentType" : 5126,
            "count" : 9415,
            "type" : "VEC3"
        },
        {
            "bufferView" : 10,
            "componentType" : 5126,
            "count" : 9415,
            "type" : "VEC2"
        },
        {
            "bufferView" : 11,
            "componentType" : 5123,
            "count" : 55293,
            "type" : "SCALAR"
        },
        {
            "bufferView" : 12,
            "componentType" : 5126,
            "count" : 8283,
            "max" : [
                -0.5741869807243347,
                0.7124329805374146,
                0.7108799815177917
            ],
            "min" : [
                -0.9865739941596985,
                -0.7032970190048218,
                -0.7181730270385742
            ],
            "type" : "VEC3"
        },
        {
            "bufferView" : 13,
            "componentType" : 5126,
            "count" : 8283,
            "type" : "VEC3"
        },
        {
            "bufferView" : 14,
            "componentType" : 5126,
            "count" : 8283,
            "type" : "VEC2"
        },
        {
            "bufferView" : 15,
            "componentType" : 5123,
            "count" : 48591,
            "type" : "SCALAR"
        },
        {
            "bufferView" : 16,
            "componentType" : 5126,
            "count" : 9176,
            "max" : [
                0.7101280093193054,
                -0.5729320049285889,
                0.7099729776382446
            ],
            "min" : [
                -0.7008429765701294,
                -0.9864140152931213,
                -0.718267023563385
            ],
            "type" : "VEC3"
        },
        {
            "bufferView" : 17,
            "componentType" : 5126,
            "count" : 9176,
            "type" : "VEC3"
        },
        {
            "bufferView" : 18,
            "componentType" : 5126,
            "count" : 9176,
            "type" : "VEC2"
        },
        {
            "bufferView" : 19,
            "componentType" : 5123,
            "count" : 53898,
            "type" : "SCALAR"
        },
        {
            "bufferView" : 20,
            "componentType" : 5126,
            "count" : 7466,
            "max" : [
                0.7092990279197693,
                0.7140009999275208,
                0.9879109859466553
            ],
            "min" : [
                -0.7129679918289185,
                -0.7136139869689941,
                0.5762509703636169
            ],
            "type" : "VEC3"
        },
        {
            "bufferView" : 21,
            "componentType" : 5126,
            "count" : 7466,
            "type" : "VEC3"
        },
        {
            "bufferView" : 22,
            "componentType" : 5126,
            "count" : 7466,
            "type" : "VEC2"
        },
        {
            "bufferView" : 23,
            "componentType" : 5123,
            "count" : 43770,
            "type" : "SCALAR"
        },
        {
            "bufferView" : 24,
            "componentType" : 5126,
            "count" : 1012,
            "max" : [
                -0.1910330057144165,
                0.49807998538017273,
                -0.6782680153846741
            ],
            "min" : [
                -0.717208981513977,
                -0.30727800726890564,
                -0.9312019944190979
            ],
            "type" : "VEC3"
        },
        {
            "bufferView" : 25,
            "componentType" : 5126,
            "count" : 1012,
            "type" : "VEC3"
        },
        {
            "bufferView" : 26,
            "componentType" : 5126,
            "count" : 1012,
            "type" : "VEC2"
        },
        {
            "bufferView" : 27,
            "componentType" : 5123,
            "count" : 5652,
            "type" : "SCALAR"
        },
        {
            "bufferView" : 28,
            "componentType" : 5126,
            "count" : 1756,
            "max" : [
                -0.6754040122032166,
                0.5742009878158569,
                -0.059776000678539276
            ],
            "min" : [
                -0.9765740036964417,
                -0.41588500142097473,
                -0.7181730270385742
            ],
            "type" : "VEC3"
        },
        {
            "bufferView" : 29,
            "componentType" : 5126,
            "count" : 1756,
            "type" : "VEC3"
        },
        {
            "bufferView" : 30,
            "componentType" : 5126,
            "count" : 1756,
            "type" : "VEC2"
        },
        {
            "bufferView" : 31,
            "componentType" : 5123,
            "count" : 9867,
            "type" : "SCALAR"
        },
        {
            "bufferView" : 32,
            "componentType" : 5126,
            "count" : 4065,
            "max" : [
                0.992048978805542,
                0.3427079916000366,
                0.709526002407074
            ],
            "min" : [
                0.5720880031585693,
                -0.7122340202331543,
                -0.38925600051879883
            ],
            "type" : "VEC3"
        },
        {
            "bufferView" : 33,
            "componentType" : 5126,
            "count" : 4065,
            "type" : "VEC3"
        },
        {
            "bufferView" : 34,
            "componentType" : 5126,
            "count" : 4065,
            "type" : "VEC2"
        },
        {
            "bufferView" : 35,
            "componentType" : 5123,
            "count" : 23475,
            "type" : "SCALAR"
        },
        {
            "bufferView" : 36,
            "componentType" : 5126,
            "count" : 4568,
            "max" : [
                0.7101280093193054,
                -0.5783969759941101,
                0.7099729776382446
            ],
            "min" : [
                -0.2281379997730255,
                -0.9864140152931213,
                -0.48751598596572876
            ],
            "type" : "VEC3"
        },
        {
            "bufferView" : 37,
            "componentType" : 5126,
            "count" : 4568,
            "type" : "VEC3"
        },
        {
            "bufferView" : 38,
            "componentType" : 5126,
            "count" : 4568,
            "type" : "VEC2"
        },
        {
            "bufferView" : 39,
            "componentType" : 5123,
            "count" : 26373,
            "type" : "SCALAR"
        },
        {
            "bufferView" : 40,
            "componentType" : 5126,
            "count" : 820,
            "max" : [
                0.7092990279197693,
                0.12429600208997726,
                0.823980987071991
            ],
            "min" : [
                -0.12745200097560883,
                -0.7136139869689941,
                0.582539975643158
            ],
            "type" : "VEC3"
        },
        {
            "bufferView" : 41,
            "componentType" : 5126,
            "count" : 820,
            "type" : "VEC3"
        },
        {
            "bufferView" : 42,
            "componentType" : 5126,
            "count" : 820,
            "type" : "VEC2"
        },
        {
            "bufferView" : 43,
            "componentType" : 5123,
            "count" : 4317,
            "type" : "SCALAR"
        }
    ],
    "bufferViews" : [
        {
            "buffer" : 0,
            "byteLength" : 104196,
            "byteOffset" : 0
        },
        {
            "buffer" : 0,
            "byteLength" : 104196,
            "byteOffset" : 104196
        },
        {
            "buffer" : 0,
            "byteLength" : 69464,
            "byteOffset" : 208392
        },
        {
            "buffer" : 0,
            "byteLength" : 101904,
            "byteOffset" : 277856
        },
        {
            "buffer" : 0,
            "byteLength" : 97200,
            "byteOffset" : 379760
        },
        {
            "buffer" : 0,
            "byteLength" : 97200,
            "byteOffset" : 476960
        },
        {
            "buffer" : 0,
            "byteLength" : 64800,
            "byteOffset" : 574160
        },
        {
            "buffer" : 0,
            "byteLength" : 94992,
            "byteOffset" : 638960
        },
        {
            "buffer" : 0,
            "byteLength" : 112980,
            "byteOffset" : 733952
        },
        {
            "buffer" : 0,
            "byteLength" : 112980,
            "byteOffset" : 846932
        },
        {
            "buffer" : 0,
            "byteLength" : 75320,
            "byteOffset" : 959912
        },
        {
            "buffer" : 0,
            "byteLength" : 110586,
            "byteOffset" : 1035232
        },
        {
            "buffer" : 0,
            "byteLength" : 99396,
            "byteOffset" : 1145820
        },
        {
            "buffer" : 0,
            "byteLength" : 99396,
            "byteOffset" : 1245216
        },
        {
            "buffer" : 0,
            "byteLength" : 66264,
            "byteOffset" : 1344612
        },
        {
            "buffer" : 0,
            "byteLength" : 97182,
            "byteOffset" : 1410876
        },
        {
            "buffer" : 0,
            "byteLength" : 110112,
            "byteOffset" : 1508060
        },
        {
            "buffer" : 0,
            "byteLength" : 110112,
            "byteOffset" : 1618172
        },
        {
            "buffer" : 0,
            "byteLength" : 73408,
            "byteOffset" : 1728284
        },
        {
            "buffer" : 0,
            "byteLength" : 107796,
            "byteOffset" : 1801692
        },
        {
            "buffer" : 0,
            "byteLength" : 89592,
            "byteOffset" : 1909488
        },
        {
            "buffer" : 0,
            "byteLength" : 89592,
            "byteOffset" : 1999080
        },
        {
            "buffer" : 0,
            "byteLength" : 59728,
            "byteOffset" : 2088672
        },
        {
            "buffer" : 0,
            "byteLength" : 87540,
            "byteOffset" : 2148400
        },
        {
            "buffer" : 0,
            "byteLength" : 12144,
            "byteOffset" : 2235940
        },
        {
            "buffer" : 0,
            "byteLength" : 12144,
            "byteOffset" : 2248084
        },
        {
            "buffer" : 0,
            "byteLength" : 8096,
            "byteOffset" : 2260228
        },
        {
            "buffer" : 0,
            "byteLength" : 11304,
            "byteOffset" : 2268324
        },
        {
            "buffer" : 0,
            "byteLength" : 21072,
            "byteOffset" : 2279628
        },
        {
            "buffer" : 0,
            "byteLength" : 21072,
            "byteOffset" : 2300700
        },
        {
            "buffer" : 0,
            "byteLength" : 14048,
            "byteOffset" : 2321772
        },
        {
            "buffer" : 0,
            "byteLength" : 19734,
            "byteOffset" : 2335820
        },
        {
            "buffer" : 0,
            "byteLength" : 48780,
            "byteOffset" : 2355556
        },
        {
            "buffer" : 0,
            "byteLength" : 48780,
            "byteOffset" : 2404336
        },
        {
            "buffer" : 0,
            "byteLength" : 32520,
            "byteOffset" : 2453116
        },
        {
            "buffer" : 0,
            "byteLength" : 46950,
            "byteOffset" : 2485636
        },
        {
            "buffer" : 0,
            "byteLength" : 54816,
            "byteOffset" : 2532588
        },
        {
            "buffer" : 0,
            "byteLength" : 54816,
            "byteOffset" : 2587404
        },
        {
            "buffer" : 0,
            "byteLength" : 36544,
            "byteOffset" : 2642220
        },
        {
            "buffer" : 0,
            "byteLength" : 52746,
            "byteOffset" : 2678764
        },
        {
            "buffer" : 0,
            "byteLength" : 9840,
            "byteOffset" : 2731512
        },
        {
            "buffer" : 0,
            "byteLength" : 9840,
            "byteOffset" : 2741352
        },
        {
            "buffer" : 0,
            "byteLength" : 6560,
            "byteOffset" : 2751192
        },
        {
            "buffer" : 0,
            "byteLength" : 8634,
            "byteOffset" : 2757752
        }
    ],
    "samplers" : [
        {
            "magFilter" : 9729,
            "minFilter" : 9987
        }
    ],
    "buffers" : [
        {
            "byteLength" : 2766388,
            "uri" : "rouen.bin"
        }
    ]
}
